<svg xmlns="http://www.w3.org/2000/svg" width="143.3" height="88.031"><defs><clipPath id="a"><path fill="none" d="M0 0h143.3v88.031H0z" data-name="Rectángulo 1027"/></clipPath></defs><g clip-path="url(#a)" data-name="Grupo 2052"><path d="M15.334 49.964c0-2.9-1.091-4.8-4.8-4.8H4.359v9.947h6.3c3.148 0 4.676-1.372 4.676-5.145m.249 15.279-4.583-9.043H4.359v9.043H3.174V44.071h7.67c4.022 0 5.706 2.276 5.706 6.018 0 3.368-1.371 5.457-4.3 5.987l4.646 9.168Z" data-name="Trazado 1071"/><path d="M11.541 29.114c0-1.716-.58-2.246-2.2-2.246H7.478v4.291h1.969c1.539 0 2.094-.53 2.094-2.045m4.543 0c0 3.483-1.943 5.679-6.285 5.679H7.478v5.578H2.987V23.234h6.587c4.542 0 6.511 1.994 6.511 5.88" data-name="Trazado 1072"/><path d="M21.715 33.202h3.836c-.1-1.691-.5-2.524-1.792-2.524-1.412 0-1.943.858-2.044 2.524m6.486 3.558 1.01 2.574a11.9 11.9 0 0 1-5.452 1.262c-4.164 0-6.511-2.17-6.511-6.637 0-4.366 2.094-6.562 6.335-6.562 4.391 0 5.88 2.4 5.88 7.874h-7.7c.252 1.439 1.01 2.019 3.054 2.019a11.5 11.5 0 0 0 3.382-.53" data-name="Trazado 1073"/><path d="M44.077 33.253v7.117h-4.341v-7.218c0-1.666-.656-2.448-1.867-2.4a2.46 2.46 0 0 0-1.994 1.54v8.075h-4.341v-9.918l-.127-2.347 3.937-.479.4 1.489v-.076a5.27 5.27 0 0 1 3.786-1.64c2.952 0 4.542 1.918 4.542 5.855" data-name="Trazado 1074"/><path d="m54.024 37.265-.151 3.028a6 6 0 0 1-2.019.3c-2.978 0-4.795-1.362-4.795-4.391v-5.754h-1.237v-2.974h1.237l.555-3.635 3.785-.126v3.761h2.572l-.227 2.978h-2.347v4.572c0 1.867.278 2.347 1.414 2.347a10 10 0 0 0 1.211-.1" data-name="Trazado 1075"/><path d="M60.637 37.746a3.06 3.06 0 0 0 2.145-.833v-2.347c-2.751.1-3.608.934-3.608 1.944 0 .732.53 1.236 1.463 1.236m6.486-5.679v8.3H64.27l-.959-1.412a6.02 6.02 0 0 1-4.138 1.64 3.836 3.836 0 0 1-4.164-4.063c.075-2.2 1.69-3.913 7.773-4.013v-.3c0-.959-1.034-1.287-2.5-1.287a11.6 11.6 0 0 0-3.483.555l-1.035-3.129a16.9 16.9 0 0 1 5.325-.959c3.458 0 6.032 1.438 6.032 4.668" data-name="Trazado 1076"/><path d="m79.188 27.701-.278 3.331a3.2 3.2 0 0 0-1.009-.126 5.04 5.04 0 0 0-3.836 1.741v7.722h-4.341v-9.918l-.126-2.347 3.937-.479.429 1.539a4.46 4.46 0 0 1 3.609-1.766 4.6 4.6 0 0 1 1.615.3" data-name="Trazado 1077"/><path d="M91.632 33.329h-1.666v7.041h-4.491V23.233h4.491v6.461h1.565l2.5-6.461h4.846l-3.709 8.2 4.315 8.933h-4.948Z" data-name="Trazado 1078"/><path d="M100.719 36.205V22.553l4.316-.127v12.593c0 1.741.252 2.347 1.414 2.347a8 8 0 0 0 1.236-.1l-.151 3.029a6.2 6.2 0 0 1-2.095.3c-2.928 0-4.72-1.362-4.72-4.391" data-name="Trazado 1079"/><path d="M116.924 34.011c0-2.423-.5-3.408-2.02-3.408-1.488 0-2.018.985-2.018 3.408 0 2.4.53 3.381 2.018 3.381 1.515 0 2.02-.984 2.02-3.381m-8.48-.051c0-4.315 2.221-6.562 6.46-6.562s6.486 2.246 6.486 6.562c0 4.366-2.245 6.638-6.486 6.638s-6.46-2.272-6.46-6.638" data-name="Trazado 1080"/><path d="M130.957 30.603h-2.6v9.767h-4.341v-9.767h-1.338v-2.978h1.338v-.555c0-3.483 1.666-4.745 4.82-4.745a12.4 12.4 0 0 1 2.2.227l-.252 2.726a7 7 0 0 0-1.111-.126c-1.035 0-1.312.555-1.312 1.918v.555h2.826Z" data-name="Trazado 1081"/><path d="m140.222 37.265-.152 3.028a6 6 0 0 1-2.019.3c-2.979 0-4.795-1.362-4.795-4.391v-5.754h-1.237v-2.974h1.237l.555-3.635 3.785-.126v3.761h2.57l-.228 2.978h-2.346v4.572c0 1.867.277 2.347 1.413 2.347a10 10 0 0 0 1.212-.1" data-name="Trazado 1082"/><path d="M33.423 64.151v1.091H21.668V44.071h11.5l-.124 1.091h-10.2v7.982h8.575v1.092h-8.575v9.915Z" data-name="Trazado 1083"/><path d="M49.516 45.162h-6.237v20.08h-1.186v-20.08h-6.39v-1.091H49.64Z" data-name="Trazado 1084"/><path d="m62.612 57.977-4.584-11.786-.125-.905-.124.905-4.584 11.786Zm.436 1.091H52.791l-2.4 6.174h-1.216l8.294-21.17h.936l8.294 21.17h-1.248Z" data-name="Trazado 1085"/><path d="M82.605 49.964c0-2.9-1.092-4.8-4.8-4.8h-6.178v9.947h6.3c3.148 0 4.677-1.372 4.677-5.145m.248 15.279-4.583-9.043h-6.642v9.043h-1.184V44.071h7.67c4.022 0 5.706 2.276 5.706 6.018 0 3.368-1.371 5.457-4.3 5.987l4.646 9.168Z" data-name="Trazado 1086"/><path d="M103.032 54.797c0-7.733-2.837-9.635-9.011-9.635h-3.9v18.989h3.9c6.609 0 9.011-2.151 9.011-9.354m1.215-.124c0 7.763-2.68 10.571-10.226 10.571h-5.082V44.071h5.082c7.887 0 10.226 3.367 10.226 10.6" data-name="Trazado 1087"/><path d="M121.115 64.151v1.091h-11.75V44.071h11.5l-.124 1.091h-10.2v7.982h8.575v1.092h-8.575v9.915Z" data-name="Trazado 1088"/><path d="M137.9 49.964c0-2.9-1.092-4.8-4.8-4.8h-6.174v9.947h6.3c3.148 0 4.677-1.372 4.677-5.145m.248 15.279-4.583-9.043h-6.642v9.043h-1.184V44.071h7.67c4.022 0 5.706 2.276 5.706 6.018 0 3.368-1.371 5.457-4.3 5.987l4.646 9.168Z" data-name="Trazado 1089"/><path fill="#c90505" d="m56.686 17.006 86.614.13-2.292-4.992Zm19.045-2.454 64.881-3.281-2.29-4.992ZM135.443 0 92.315 11.389l45.4-6.426Z" data-name="Trazado 1090"/><path fill="#034492" d="m8.388 83.068 3.42 4.966 46.459-11.82ZM4.043 76.76l3.444 5 68.857-8.87Zm-.6-.873 93.865-4.839L0 70.894Z" data-name="Trazado 1091"/></g></svg>